<svg xmlns="http://www.w3.org/2000/svg" width="30" height="23" viewBox="0 0 30 23">
    <g fill="none">
        <path fill="#3CBB60" d="M29.646 6.594c0-1.947-1.584-3.53-3.531-3.53h-1.967c-.89 0-1.728-.348-2.359-.977l-.883-.884C20.198.496 19.259.106 18.259.106l-6.533.002c-1.053 0-2.062.448-2.772 1.227l-.577.636c-.63.696-1.53 1.094-2.47 1.094H3.886c-1.947 0-3.53 1.583-3.53 3.53v12.437c0 1.947 1.583 3.53 3.53 3.53h22.23c1.947 0 3.53-1.584 3.53-3.531V6.594z"/>
        <path fill="#FFF" d="M14.348 12.33c.01-.55.227-1.023.59-1.298.448-.338.538-.975.2-1.424-.338-.448-.975-.538-1.424-.2-.865.652-1.375 1.702-1.399 2.882-.025 1.262.5 2.458 1.405 3.2.19.155.418.23.645.23.294 0 .586-.128.787-.373.356-.434.293-1.076-.141-1.432-.423-.344-.676-.952-.663-1.585z"/>
        <path fill="#FFF" d="M15 5.553c-3.809 0-6.908 3.1-6.908 6.908 0 3.809 3.1 6.908 6.908 6.908 3.809 0 6.908-3.1 6.908-6.908 0-3.81-3.1-6.908-6.908-6.908zm0 11.782c-2.688 0-4.874-2.186-4.874-4.874 0-2.688 2.186-4.874 4.874-4.874 2.688 0 4.874 2.186 4.874 4.874 0 2.688-2.186 4.874-4.874 4.874z"/>
        <path fill="#FFF" d="M29.646 19.03V6.595c0-1.947-1.584-3.53-3.531-3.53h-1.967c-.89 0-1.728-.348-2.359-.977l-.883-.884C20.198.496 19.259.106 18.259.106l-6.533.002c-1.053 0-2.062.448-2.772 1.227l-.577.636c-.63.696-1.53 1.094-2.47 1.094H3.886c-1.947 0-3.53 1.583-3.53 3.53v12.437c0 1.947 1.583 3.53 3.53 3.53h22.23c1.947 0 3.53-1.584 3.53-3.531zm-27.257 0V6.595c0-.825.67-1.497 1.496-1.497H5.91c1.511 0 2.96-.641 3.977-1.76l.575-.636c.325-.356.786-.56 1.267-.56h6.534c.456 0 .886.179 1.208.5l.883.884c1.014 1.014 2.363 1.571 3.797 1.571l1.965.003c.825 0 1.496.672 1.496 1.496v12.437c0 .825-.67 1.497-1.496 1.497l-22.23-.002c-.826 0-1.496-.671-1.496-1.496z"/>
    </g>
</svg>
