<svg xmlns="http://www.w3.org/2000/svg" width="22" height="32" viewBox="0 0 22 32">
    <g fill="none">
        <path fill="#3CBB60" d="M13 1H1.615C1.275 1 1 1.274 1 1.612v28.776c0 .338.276.612.615.612h18.77c.34 0 .615-.274.615-.612V9c-5.107-5.333-7.773-8-8-8z"/>
        <path fill="#FFF" d="M14 8V1h-2v8c0 .552.448 1 1 1h8V8h-7z"/>
        <path fill="#FFF" d="M13 0H1.615C.725 0 0 .72 0 1.612v28.776C0 31.28.725 32 1.615 32h18.77c.89 0 1.615-.72 1.615-1.612V9c0-.258-.1-.505-.278-.692C15.051 1.341 13.71 0 13 0zm-.05 2.235c.35.323.855.814 1.513 1.472C15.74 4.986 17.588 6.884 20 9.402V30H2V2h10.687c.072.062.16.14.263.235z"/>
        <path fill="#FFF" d="M14 27h3c.552 0 1-.448 1-1s-.448-1-1-1h-3c-.552 0-1 .448-1 1s.448 1 1 1zM5 27h2c.552 0 1-.448 1-1s-.448-1-1-1H5c-.552 0-1 .448-1 1s.448 1 1 1zM10 27h1c.552 0 1-.448 1-1s-.448-1-1-1h-1c-.552 0-1 .448-1 1s.448 1 1 1zM14 19h3c.552 0 1-.448 1-1s-.448-1-1-1h-3c-.552 0-1 .448-1 1s.448 1 1 1zM5 19h6c.552 0 1-.448 1-1s-.448-1-1-1H5c-.552 0-1 .448-1 1s.448 1 1 1zM5 15h8c.552 0 1-.448 1-1s-.448-1-1-1H5c-.552 0-1 .448-1 1s.448 1 1 1zM16 15h1c.552 0 1-.448 1-1s-.448-1-1-1h-1c-.552 0-1 .448-1 1s.448 1 1 1zM9 23h8c.552 0 1-.448 1-1s-.448-1-1-1H9c-.552 0-1 .448-1 1s.448 1 1 1zM5 23h1c.552 0 1-.448 1-1s-.448-1-1-1H5c-.552 0-1 .448-1 1s.448 1 1 1z"/>
    </g>
</svg>
