<svg xmlns="http://www.w3.org/2000/svg" width="246" height="246" viewBox="0 0 246 246">
    <path fill="#FFF" fill-rule="evenodd" d="M49.526 128.607c-24.29-11.952 19.242-48.485 59.103-13.813 26.575 23.114 46.214 49.704 58.918 79.77l30.167-6.198c5.32-21.981 15.357-48.733 30.11-80.256L246 106.002c0 26.002.489 49.33-18.176 82.364C209.158 221.4 168.554 246 129.17 246c-26.256 0-47.855-5.208-64.799-15.623l8.259-15.081c36 0 52.542-16.944 49.4-37.751-3.98-26.335-48.213-36.986-72.504-48.938zM17.92 133.63c12.935 17.533 45.759 27.131 58.658 31.209 12.9 4.077 22.474 17.923 5.107 31.542-11.577 9.08-28.52 12.06-50.83 8.942C14.794 188.135 4.509 164.829 0 135.403zM124.572 0c39.792 0 74.194 18.988 103.206 56.963-15.957 33.872-28.422 70.564-37.398 110.074l-8.953-6.436c-4.37-19.508-22.294-63.526-69.218-74.627-31.283-7.401-61.275-3.123-89.978 12.833l-16.157-4.22C20.345 38.93 64.884 0 124.572 0z" opacity=".7"/>
</svg>
